# xmcd
#
# Track frame offsets: 
#        150
#        16074
#        31148
#        47946
#        63971
#        81752
#        97656
#        116413
#        136020
#        149662
#        163897
#
# Disc length: 2388 seconds
#
# Revision: 0
# Processed by: cddbd v1.5.2PL0 Copyright (c) Steve Scherf et al.
# Submitted via: ExactAudioCopyFreeDBPlugin 1.0
#
DISCID=8609520b
DTITLE=Songhoy Blues - Music In Exile
DYEAR=2015
DGENRE=Songhoy
TTITLE0=Soubour
TTITLE1=Irganda
TTITLE2=Al Hassidi Terei
TTITLE3=Sekou Oumarou
TTITLE4=Nick
TTITLE5=Ai Tchere Bele
TTITLE6=Wayei
TTITLE7=Petit Metier
TTITLE8=Jolie
TTITLE9=Desert Melodie
TTITLE10=Mali
EXTD=
EXTT0=
EXTT1=
EXTT2=
EXTT3=
EXTT4=
EXTT5=
EXTT6=
EXTT7=
EXTT8=
EXTT9=
EXTT10=
PLAYORDER=
